<?xml version="1.0" encoding="UTF-8" standalone="no"?>
<!DOCTYPE svg PUBLIC "-//W3C//DTD SVG 1.1//EN"
 "http://www.w3.org/Graphics/SVG/1.1/DTD/svg11.dtd">
<!-- Generated by graphviz version 2.46.1 (0)
 -->
<!-- Pages: 1 -->
<svg width="336pt" height="674pt"
 viewBox="0.00 0.00 336.17 674.00" xmlns="http://www.w3.org/2000/svg" xmlns:xlink="http://www.w3.org/1999/xlink">
<g id="graph0" class="graph" transform="scale(1 1) rotate(0) translate(4 670)">
<polygon fill="white" stroke="transparent" points="-4,4 -4,-670 332.17,-670 332.17,4 -4,4"/>
<!-- start -->
<g id="node1" class="node">
<title>start</title>
<ellipse fill="none" stroke="black" cx="170.2" cy="-648" rx="27.1" ry="18"/>
<text text-anchor="middle" x="170.2" y="-644.3" font-family="Times,serif" font-size="14.00">Start</text>
</g>
<!-- is_author -->
<g id="node4" class="node">
<title>is_author</title>
<polygon fill="none" stroke="black" points="170.2,-593 82.08,-550 170.2,-507 258.33,-550 170.2,-593"/>
<text text-anchor="middle" x="170.2" y="-546.3" font-family="Times,serif" font-size="14.00">Are you an owner?</text>
</g>
<!-- start&#45;&gt;is_author -->
<g id="edge1" class="edge">
<title>start&#45;&gt;is_author</title>
<path fill="none" stroke="black" d="M170.2,-629.84C170.2,-622.23 170.2,-612.84 170.2,-603.21"/>
<polygon fill="black" stroke="black" points="173.71,-603.17 170.2,-593.17 166.71,-603.17 173.71,-603.17"/>
</g>
<!-- on_topic -->
<g id="node2" class="node">
<title>on_topic</title>
<ellipse fill="none" stroke="black" cx="138.2" cy="-18" rx="42.49" ry="18"/>
<text text-anchor="middle" x="138.2" y="-14.3" font-family="Times,serif" font-size="14.00">On&#45;topic</text>
</g>
<!-- off_topic -->
<g id="node3" class="node">
<title>off_topic</title>
<ellipse fill="none" stroke="black" cx="242.2" cy="-18" rx="44.39" ry="18"/>
<text text-anchor="middle" x="242.2" y="-14.3" font-family="Times,serif" font-size="14.00">Off&#45;topic</text>
</g>
<!-- is_illegal -->
<g id="node5" class="node">
<title>is_illegal</title>
<polygon fill="none" stroke="black" points="104.2,-456 -0.21,-413 104.2,-370 208.62,-413 104.2,-456"/>
<text text-anchor="middle" x="104.2" y="-409.3" font-family="Times,serif" font-size="14.00">Did you post the code?</text>
</g>
<!-- is_author&#45;&gt;is_illegal -->
<g id="edge7" class="edge">
<title>is_author&#45;&gt;is_illegal</title>
<path fill="none" stroke="black" d="M153.55,-514.93C145.12,-497.69 134.79,-476.56 125.76,-458.1"/>
<polygon fill="black" stroke="black" points="128.85,-456.44 121.31,-449 122.56,-459.52 128.85,-456.44"/>
<text text-anchor="middle" x="145.2" y="-477.8" font-family="Times,serif" font-size="14.00">no</text>
</g>
<!-- is_misunderstand -->
<g id="node6" class="node">
<title>is_misunderstand</title>
<polygon fill="none" stroke="black" points="190.2,-173 52.28,-130 190.2,-87 328.13,-130 190.2,-173"/>
<text text-anchor="middle" x="190.2" y="-126.3" font-family="Times,serif" font-size="14.00">Asking to understand the code?</text>
</g>
<!-- is_author&#45;&gt;is_misunderstand -->
<g id="edge4" class="edge">
<title>is_author&#45;&gt;is_misunderstand</title>
<path fill="none" stroke="black" d="M194.78,-518.86C213.55,-492.76 236.2,-453.13 236.2,-414 236.2,-414 236.2,-414 236.2,-227 236.2,-208.62 229.26,-190.02 220.77,-174.16"/>
<polygon fill="black" stroke="black" points="223.62,-172.11 215.63,-165.16 217.54,-175.58 223.62,-172.11"/>
<text text-anchor="middle" x="245.2" y="-297.3" font-family="Times,serif" font-size="14.00">yes</text>
</g>
<!-- do_rewrite_code -->
<g id="node7" class="node">
<title>do_rewrite_code</title>
<polygon fill="none" stroke="black" points="196.7,-246 93.7,-246 93.7,-210 196.7,-210 196.7,-246"/>
<text text-anchor="middle" x="145.2" y="-224.3" font-family="Times,serif" font-size="14.00">Write new code</text>
</g>
<!-- is_illegal&#45;&gt;do_rewrite_code -->
<g id="edge8" class="edge">
<title>is_illegal&#45;&gt;do_rewrite_code</title>
<path fill="none" stroke="black" d="M81.62,-379.07C66.17,-352.15 51.15,-313.65 67.2,-283 73.91,-270.2 85.18,-259.84 97.09,-251.74"/>
<polygon fill="black" stroke="black" points="99.23,-254.53 105.83,-246.24 95.5,-248.6 99.23,-254.53"/>
<text text-anchor="middle" x="74.2" y="-297.3" font-family="Times,serif" font-size="14.00">no</text>
</g>
<!-- do_remove_code -->
<g id="node8" class="node">
<title>do_remove_code</title>
<polygon fill="none" stroke="black" points="200.2,-319 90.2,-319 90.2,-283 200.2,-283 200.2,-319"/>
<text text-anchor="middle" x="145.2" y="-297.3" font-family="Times,serif" font-size="14.00">Remove the code</text>
</g>
<!-- is_illegal&#45;&gt;do_remove_code -->
<g id="edge5" class="edge">
<title>is_illegal&#45;&gt;do_remove_code</title>
<path fill="none" stroke="black" d="M117.86,-375.37C123.56,-360.08 130.05,-342.65 135.28,-328.62"/>
<polygon fill="black" stroke="black" points="138.63,-329.67 138.84,-319.08 132.07,-327.23 138.63,-329.67"/>
<text text-anchor="middle" x="140.2" y="-340.8" font-family="Times,serif" font-size="14.00">yes</text>
</g>
<!-- is_misunderstand&#45;&gt;on_topic -->
<g id="edge9" class="edge">
<title>is_misunderstand&#45;&gt;on_topic</title>
<path fill="none" stroke="black" d="M172.89,-92.37C165.54,-76.83 157.15,-59.08 150.47,-44.94"/>
<polygon fill="black" stroke="black" points="153.58,-43.33 146.14,-35.79 147.25,-46.32 153.58,-43.33"/>
<text text-anchor="middle" x="167.2" y="-57.8" font-family="Times,serif" font-size="14.00">no</text>
</g>
<!-- is_misunderstand&#45;&gt;off_topic -->
<g id="edge6" class="edge">
<title>is_misunderstand&#45;&gt;off_topic</title>
<path fill="none" stroke="black" d="M207.52,-92.37C214.87,-76.83 223.26,-59.08 229.94,-44.94"/>
<polygon fill="black" stroke="black" points="233.16,-46.32 234.27,-35.79 226.83,-43.33 233.16,-46.32"/>
<text text-anchor="middle" x="234.2" y="-57.8" font-family="Times,serif" font-size="14.00">yes</text>
</g>
<!-- do_rewrite_code&#45;&gt;is_misunderstand -->
<g id="edge3" class="edge">
<title>do_rewrite_code&#45;&gt;is_misunderstand</title>
<path fill="none" stroke="black" d="M153.25,-209.84C157.56,-200.65 163.09,-188.84 168.56,-177.17"/>
<polygon fill="black" stroke="black" points="171.83,-178.44 172.91,-167.9 165.49,-175.47 171.83,-178.44"/>
</g>
<!-- do_remove_code&#45;&gt;do_rewrite_code -->
<g id="edge2" class="edge">
<title>do_remove_code&#45;&gt;do_rewrite_code</title>
<path fill="none" stroke="black" d="M145.2,-282.81C145.2,-274.79 145.2,-265.05 145.2,-256.07"/>
<polygon fill="black" stroke="black" points="148.71,-256.03 145.2,-246.03 141.71,-256.03 148.71,-256.03"/>
</g>
</g>
</svg>
